/* XPM */
static char *Pixmap[] = {
"48 48 256 3",
"000 c black",
"001 c #050609",
"002 c #090504",
"003 c #0A0608",
"004 c #0A0A0C",
"005 c #0B0C11",
"006 c #0F1118",
"007 c #170A08",
"008 c #141517",
"009 c #181A22",
"010 c #1C2029",
"011 c #240D0B",
"012 c #29130C",
"013 c #281415",
"014 c #381714",
"015 c #221B27",
"016 c #221F2A",
"017 c #2D1D25",
"018 c #3C1B21",
"019 c #392C12",
"020 c #222324",
"021 c #28202B",
"022 c #2B2B2C",
"023 c #272C32",
"024 c #2D333C",
"025 c #3C2936",
"026 c #3A3B3B",
"027 c #2B3145",
"028 c #383648",
"029 c #3A3D55",
"030 c #3C4147",
"031 c #3A455A",
"032 c #3F4862",
"033 c #421918",
"034 c #5F1F1D",
"035 c #4F1F21",
"036 c #482416",
"037 c #4B3918",
"038 c #59241B",
"039 c #5D381D",
"040 c #592220",
"041 c #572C35",
"042 c #69351F",
"043 c #662D2F",
"044 c #6A2F36",
"045 c #762B23",
"046 c #7A3A23",
"047 c #773338",
"048 c #472E40",
"049 c #493D55",
"050 c #593E4F",
"051 c #7B3E4A",
"052 c #67441C",
"053 c #724420",
"054 c #715823",
"055 c #434344",
"056 c #4C4C4C",
"057 c #474C53",
"058 c #57455B",
"059 c #515253",
"060 c #5B5B5B",
"061 c #464A65",
"062 c #495666",
"063 c #4C5571",
"064 c #514E6B",
"065 c #515B76",
"066 c #565878",
"067 c #55647F",
"068 c #6C4454",
"069 c #6E485A",
"070 c #704251",
"071 c #664C69",
"072 c #7C536C",
"073 c #7A5E7E",
"074 c gray40",
"075 c #686C71",
"076 c #737477",
"077 c #5B5D87",
"078 c #576784",
"079 c #5D6E95",
"080 c #7B5C81",
"081 c #616389",
"082 c #6A6C9B",
"083 c #6A7384",
"084 c #68739E",
"085 c #756387",
"086 c #75628B",
"087 c #74698E",
"088 c #7A6285",
"089 c #7B638B",
"090 c #7A688B",
"091 c #716591",
"092 c #746B94",
"093 c #796991",
"094 c #7E7F82",
"095 c #72739C",
"096 c #6E6FA0",
"097 c #6A77A5",
"098 c #6D7EB1",
"099 c #7174A2",
"100 c #737BA4",
"101 c #727DAA",
"102 c #79869B",
"103 c #6D81AB",
"104 c #6E83B2",
"105 c #7482AC",
"106 c #7285B3",
"107 c #7489B5",
"108 c #758CBA",
"109 c #7985B2",
"110 c #7A8BB5",
"111 c #7B8BB8",
"112 c #7C93BC",
"113 c #7E94C1",
"114 c #872F2A",
"115 c #843435",
"116 c #9A332E",
"117 c #913C3E",
"118 c #A03B37",
"119 c #833E47",
"120 c #9E462E",
"121 c #96782C",
"122 c #A74132",
"123 c #A25B2E",
"124 c #BA4338",
"125 c #B86434",
"126 c #BE7731",
"127 c #8A424B",
"128 c #97464C",
"129 c #865063",
"130 c #8C5B77",
"131 c #9A4E62",
"132 c #93536C",
"133 c #945A6E",
"134 c #9A5065",
"135 c #9B5368",
"136 c #9C5867",
"137 c #9B5A6B",
"138 c #935A71",
"139 c #85627D",
"140 c #8F6076",
"141 c #8A617B",
"142 c #A94C58",
"143 c #AB535A",
"144 c #B94749",
"145 c #B34A51",
"146 c #BA504E",
"147 c #B35156",
"148 c #A35664",
"149 c #C13E3A",
"150 c #C03F40",
"151 c #C9483D",
"152 c #CE543C",
"153 c #D34B3E",
"154 c #D2583D",
"155 c #CA6539",
"156 c #CF7137",
"157 c #D4693B",
"158 c #D6773B",
"159 c #C64943",
"160 c #C4504C",
"161 c #C05151",
"162 c #D34C41",
"163 c #D65640",
"164 c #D96740",
"165 c #855F80",
"166 c #816383",
"167 c #886380",
"168 c #C38C33",
"169 c #DA893B",
"170 c #DB983B",
"171 c #DDA73A",
"172 c #DEB33C",
"173 c #E0AD3C",
"174 c #E1B33D",
"175 c #E1A840",
"176 c gray56",
"177 c #8D919B",
"178 c #929395",
"179 c #92959D",
"180 c gray61",
"181 c #8092AF",
"182 c #8293B2",
"183 c #8194BB",
"184 c #829ABD",
"185 c #8996BD",
"186 c #8E9AB1",
"187 c #8A9ABC",
"188 c #9E9FA2",
"189 c #9FA4AB",
"190 c gray63",
"191 c #A2A5AA",
"192 c #A7AAAF",
"193 c #ABABAD",
"194 c #A4ADBC",
"195 c #ABB0BD",
"196 c #B7B7B7",
"197 c #859BC3",
"198 c #8C9CC2",
"199 c #919FC3",
"200 c #8CA1C5",
"201 c #93A4C3",
"202 c #92A4C9",
"203 c #92A9C7",
"204 c #94A9CA",
"205 c #98A7C5",
"206 c #9FA8C1",
"207 c #9AABCB",
"208 c #9DB0CD",
"209 c #9EB1D1",
"210 c #A0AFCF",
"211 c #A3B2CE",
"212 c #A8B2C0",
"213 c #A2B3D0",
"214 c #A7B9D3",
"215 c #A9B5D0",
"216 c #ACBAD4",
"217 c #B7BBC3",
"218 c #B2BCD2",
"219 c #B2BED8",
"220 c #B8C1CF",
"221 c #B4C3D7",
"222 c #B4C2D9",
"223 c #B8C2D6",
"224 c #B9C6DC",
"225 c #BCC9DB",
"226 c #C8C8C9",
"227 c #C1C6DB",
"228 c #C2CBDD",
"229 c #C7D0DF",
"230 c #CAD0DE",
"231 c #D3D3D3",
"232 c gainsboro",
"233 c #C4CDE0",
"234 c #C5D0E1",
"235 c #CAD3E2",
"236 c #CED7E8",
"237 c #CED8E5",
"238 c #D0D7E5",
"239 c #D2D9E5",
"240 c #D5DDE8",
"241 c #D8DDE9",
"242 c #DCE1EA",
"243 c #DFE5F0",
"244 c #E3E3E4",
"245 c #E2E5EC",
"246 c #E4E8EF",
"247 c gray92",
"248 c #E2E6F0",
"249 c #E5E9F0",
"250 c #EAECF2",
"251 c #EEF0F4",
"252 c #F2F3F5",
"253 c #F4F5F8",
"254 c #F6F8F9",
"255 c #FEFEFE",
"255255255255255255255255255255255255255255255255255255255255255255255255255255255255255255255255255255255255255255255255255255255255255255255255",
"255255255255255255255255255255255255255255255255255255255255255255255255255255255255255255255255255255255255255255255255255255255255255255255255",
"255255255255255255255255255255255255255255255255255255255255255255255255255255255255255255255255190055226255255255255255255255255255255255255255",
"255255255255255255255255255255255255255255255255255255255247217231254255255255254255255255254255056000008196255255255255255255255255255255255255",
"255255255255255255255255255255255255255255255255255251060002000000020196252254254254254255255255232022000003180255255255255255255255255255255255",
"255255255255255255255255255255255255255255255254254026004094217191026000192246246250251252253254255247056000000076255255255255255255255255255255",
"255255255255255255255255255255255255255255254254188000189241237234225023020225228234237242248251253254254075000000059252255255255255255255255255",
"255255255255255255255255255255255255254254252249059020225219213207203078000181204208214221228237242250253254178000000026244255255255255255255255",
"255255255255255255255255255255255254254250242235030023202197112108106067000079107108113200207214225236243251254196004000020232255255255255255255",
"255255255255255255255255255255254253249240225211062001103103097097084027001079096097103098108197204214233240250253226008000008231255255255255255",
"255255255255255255255255255254253246237221207184097001009081091085049000025080088086091096097098108197209224240249254232020000008226255255255255",
"255255255255255255255255254254246237219203112103084064001000008004000018131131135132130165093082097106113207222236249253244022000008232255255255",
"255255255255255255255252226176075057024010006004001050129041033035115145144145145145142135138165091097098113204222240250254244022000026255255255",
"255255255255255254074002000000000000000000000000000041142144144150150150150150150144144144142135130089096098113207224240251254231001000196255255",
"255255255255255196000000000009030031032061058070127145144150149149149149149149149149150118115044041048028029061067102212242253255074000026255255",
"255255255255255251020000000000009027029049068119117124150150149149149149149116034012002000000000000000000000000000000000002020059074000000231255",
"255255255255255254244076009000000000000000000000000000012114151151124045011000000000000002007012033033018017015009005000000000000000000000074255",
"255255255255255254251238216105063028017011007003002000000000036120012000000000014046120151151149159144145134080082098183186177076055008000020255",
"255255255255255253245233207110099088133143144159151122038000000000000002052126158156155152152151149159144142132086096108207228248254190000022255",
"255255255255254252241222200105092139148146159151153152154012000000019168170170170169158156152152151150159145134080082098198219242252059000074255",
"255255255255254251237214113101087133143144151151152154155000000037171171171171171170170158156152151151150144142130091097183215239226000000226255",
"255255255255254249235209111099088137147159152151152157123000002171173173172173171173171169158154152151151144142132086084110210220020000055255255",
"255255255255254249233207110095166148146159151152154156053000019174174173172172172173171170169157152151151150145132080082107187020000008232255255",
"255255255255254248233204110095139148146159162152154158019000037174174172172172172172171171169156154151151150145134080082084009000008226255255255",
"255255255255254248228204110092167143146159162152154158002000019172174172172172172172173171169158154151151159144134080077006000006217254255255255",
"255255255255254248228204110095141148160159151152154125000000002171172172172172172172173171169158152153151150145131071005000008194246254255255255",
"255255255255254248228204110095139148146159162152154046000000000121172172172172172174173170169157154151151151145051001000008182228249254255255255",
"255255255255254249229208110099166136147159151153154014000000000019174174172172172173175170169157152151151159047002000009103207234250254255255255",
"255255255255254250238211183100090133147159159152124000000000000000054174172175173175170169158154152151151040000000009084112213237250254255255255",
"255255255255255250240216197105092140143146151151012000000007012000000037171171175170169158164154153151033000000021091098197216240251255254255255",
"255255255255255252242225203107095166136147159014000000012155125002000000037170169169158164154153153014000000025088084106202224242253255255255255",
"255255255255255253249235213112101087130142014000000033152163164042000000000039158164164163163153124000000041130091097112210235249254255255255255",
"255255255255255254251240222200106095073013000000040162162163163154011000000000046163163153153153151115119133089096104198219241251254255255255255",
"255255255255255255253246234209183084009000000043160162162153162163122000000000002122153153153151160145136165092097113210233248253255255255255255",
"255255255255255255254251241222182009000000050148147160162162162162162045000000000007151162159160147148130093099108202223241251254255255255255255",
"255255255255255255255253249195008000004066090140148147161160162162162151033000000000033160144147135141093099107198216236249254255255255255255255",
"255255255255255255255255196004000008100109095093141137148161161160160159144011000000000047148138165093099109185215229245253254255255255255255255",
"255255255255255255255190001000022212215185109100092166140137148143143147147128002000000002072089092100109198215233245251254255255255255255255255",
"255255255255255255176000000055244242228215199111105099092090167140138133133133069002000000016099101111199215229242251254255255255255255255255255",
"255255255255255255022000060253254251244230218207198110105099095093093090090087087064000000000063185207218230245251254255255255255255255255255255",
"255255255255255255231193255255254254252246239227216207187182109109100100100100101105065000000005206227239249251254255255255255255255255255255255",
"255255255255255255255255255255255255254253250245238227218211205199187185185187187199205083000000075245250253254255255255255255255255255255255255",
"255255255255255255255255255255255255255255254252250245239230227223218218218216218223225235179022193251254255255255255255255255255255255255255255",
"255255255255255255255255255255255255255255255254254253251250245242241240239241241242245249251252254255254255255255255255255255255255255255255255",
"255255255255255255255255255255255255255255255255255254255253253252252252251251252253253254254255255255255255255255255255255255255255255255255255",
"255255255255255255255255255255255255255255255255255255255255255254255255254255255254255255255255255255255255255255255255255255255255255255255255",
"255255255255255255255255255255255255255255255255255255255255255255255255255255255255255255255255255255255255255255255255255255255255255255255255",
"255255255255255255255255255255255255255255255255255255255255255255255255255255255255255255255255255255255255255255255255255255255255255255255255"
};
